# xmcd
#
# Track frame offsets:
#	150
#	22720
#	36079
#	51580
#	67604
#	81180
#	97075
#	110677
#	121237
#	141823
#	159427
#	174748
#	187897
#	202453
#	216973
#	231797
#	244769
#	255105
#	273229
#	284095
#	298054
#	319693
#	331332
#	343281
#
# Disc length: 4792 seconds
#
# Revision: 1
# Processed by: cddbd v1.5.2PL0 Copyright (c) Steve Scherf et al.
# Submitted via: audiograbber 1.83.01
#
DISCID=6c12b618
DTITLE=Various Artist - Longhaired Rednecks
DYEAR=2018
DGENRE=Country
TTITLE0=Guy Clark - L. A. Freeway
TTITLE1=Waylon Jennings - Are You Sure Hank Done It This Way
TTITLE2=David Allan Coe - Longhaired Redneck
TTITLE3=Jerry Jeff Walker - Public Domain
TTITLE4=Gary Stewart - Drinkin' Thing
TTITLE5=Billlie Joe Shaver - When The Word Was Thunderbird
TTITLE6=Waylon and Willie - Good Hearted Woman
TTITLE7=Willie Nelson - Blue Eyes Crying In The Rain
TTITLE8=Guy Clark - Desperados Waiting For A Train
TTITLE9=Ray Wylie Hubbard - West Texas Country Western Dance Band
TTITLE10=James Talley - They Gonna Make Us Outlaws Again
TTITLE11=Doug Sahm - Give Back The Key To My Heart
TTITLE12=Moe Bandy - Hank Williams, You Wrote My Life
TTITLE13=Johnny Paycheck - I'm The Only Hell (Mama Ever Raised)
TTITLE14=David Allan Coe - Willie, Waylon And Me
TTITLE15=Mel Tillis - Good Woman Blues
TTITLE16=Tompall Glaser - Put Another Log On The Fire
TTITLE17=The Lost Gonzo Band - The Last Thing I Needed
TTITLE18=James Talley - Tryin' Like The Devil
TTITLE19=Gary Stewart - Your Place Or Mine
TTITLE20=Guy Clark - Broken Hearted People
TTITLE21=David Allan Coe - Laid Back And Wasted
TTITLE22=Johnny Paycheck - Take This Job And Shove It
TTITLE23=Joe Ely - Shp Never Spoke Spa.ish To Me
EXTD=
EXTT0=
EXTT1=
EXTT2=
EXTT3=
EXTT4=
EXTT5=
EXTT6=
EXTT7=
EXTT8=
EXTT9=
EXTT10=
EXTT11=
EXTT12=
EXTT13=
EXTT14=
EXTT15=
EXTT16=
EXTT17=
EXTT18=
EXTT19=
EXTT20=
EXTT21=
EXTT22=
EXTT23=
PLAYORDER=
